<?xml version="1.0" encoding="UTF-8"?>
<svg width="24" height="24" viewBox="0 0 24 24" fill="none" xmlns="http://www.w3.org/2000/svg">
  <path d="M23.766 12.2764C23.766 11.4607 23.6999 10.6406 23.5588 9.83807H12.24V14.4591H18.7217C18.4528 15.9494 17.5885 17.2678 16.323 18.1056V21.1039H20.19C22.4608 19.0139 23.766 15.9274 23.766 12.2764Z" fill="#4285F4"/>
  <path d="M12.24 24.0008C15.4764 24.0008 18.2058 22.9382 20.1944 21.1039L16.3274 18.1055C15.2516 18.8375 13.8626 19.252 12.24 19.252C9.0526 19.252 6.3526 17.1399 5.3956 14.3003H1.3956V17.3912C3.4132 21.4434 7.5526 24.0008 12.24 24.0008Z" fill="#34A853"/>
  <path d="M5.39558 14.3003C5.1526 13.5591 5.01558 12.7659 5.01558 11.9999C5.01558 11.2339 5.1526 10.4407 5.39558 9.69946V6.60855H1.39558C0.546559 8.23894 0.0175781 10.0644 0.0175781 11.9999C0.0175781 13.9354 0.546559 15.7608 1.39558 17.3912L5.39558 14.3003Z" fill="#FBBC04"/>
  <path d="M12.24 4.74966C14.0217 4.74966 15.6085 5.36062 16.8565 6.54807L20.2695 3.12807C18.2001 1.18886 15.4764 0.0012207 12.24 0.0012207C7.5526 0.0012207 3.4132 2.55862 1.3956 6.60869L5.3956 9.69959C6.3526 6.86003 9.0526 4.74966 12.24 4.74966Z" fill="#EA4335"/>
</svg> 
