<?xml version="1.0" encoding="UTF-8"?>
<svg width="200" height="200" viewBox="0 0 200 200" fill="none" xmlns="http://www.w3.org/2000/svg">
  <g transform="translate(20, 20) scale(0.8)">
    <!-- Voucher -->
    <path d="M20 80C20 71.7157 26.7157 65 35 65H165C173.284 65 180 71.7157 180 80V120C180 128.284 173.284 135 165 135H35C26.7157 135 20 128.284 20 120V80Z" fill="#9F7AEA"/>
    <path d="M35 70H165C170.523 70 175 74.4772 175 80V120C175 125.523 170.523 130 165 130H35C29.4772 130 25 125.523 25 120V80C25 74.4772 29.4772 70 35 70Z" fill="#7FFFD4"/>
    <!-- Dotted Line -->
    <path d="M40 100H160" stroke="#000000" stroke-width="2" stroke-dasharray="4 4"/>
    <!-- Stars -->
    <path d="M30 50L35 55L40 50L35 45L30 50Z" fill="#FFD700"/>
    <path d="M160 150L165 155L170 150L165 145L160 150Z" fill="#FFD700"/>
    <!-- Coins -->
    <circle cx="170" cy="60" r="20" fill="#FFD700"/>
    <text x="165" y="65" font-family="Arial" font-size="16" fill="#000000">$</text>
  </g>
</svg> 
